<?xml version="1.0" standalone="no"?>
<!DOCTYPE svg PUBLIC "-//W3C//DTD SVG 20010904//EN"
 "http://www.w3.org/TR/2001/REC-SVG-20010904/DTD/svg10.dtd">
<svg version="1.0" xmlns="http://www.w3.org/2000/svg"
 width="240.000000pt" height="284.000000pt" viewBox="0 0 240.000000 284.000000"
 preserveAspectRatio="xMidYMid meet">

<g transform="translate(0.000000,284.000000) scale(0.100000,-0.100000)"
fill="#000000" stroke="none">
<path d="M896 2764 c-19 -19 -20 -25 -3 -49 20 -26 67 -13 67 18 0 43 -35 60
-64 31z m29 -14 c3 -5 1 -10 -4 -10 -6 0 -11 5 -11 10 0 6 2 10 4 10 3 0 8 -4
11 -10z"/>
<path d="M1067 2753 c-12 -11 -8 -23 8 -23 8 0 15 7 15 15 0 16 -12 20 -23 8z"/>
<path d="M1474 2749 c-8 -14 11 -33 25 -25 6 4 11 14 11 22 0 16 -26 19 -36 3z"/>
<path d="M1243 2674 c-14 -38 41 -71 66 -40 7 8 10 24 6 36 -8 25 -62 28 -72
4z m37 -4 c0 -5 -5 -10 -11 -10 -5 0 -7 5 -4 10 3 6 8 10 11 10 2 0 4 -4 4
-10z"/>
<path d="M1643 2663 c-21 -8 -16 -61 6 -68 30 -9 51 5 51 35 0 33 -24 47 -57
33z m22 -23 c3 -5 1 -10 -4 -10 -6 0 -11 5 -11 10 0 6 2 10 4 10 3 0 8 -4 11
-10z"/>
<path d="M694 2641 c4 -6 0 -11 -9 -11 -9 0 -13 -4 -10 -10 3 -5 15 -10 26
-10 23 0 23 30 0 38 -8 3 -11 0 -7 -7z"/>
<path d="M1083 2625 c-6 -10 -38 -19 -98 -26 -100 -12 -121 -17 -112 -26 4 -3
49 0 102 7 52 8 97 11 101 8 3 -4 1 -16 -6 -27 -9 -17 -20 -21 -63 -21 -29 0
-59 -5 -67 -11 -11 -8 0 -9 43 -5 31 4 57 3 57 -2 0 -14 -59 -102 -68 -102
-11 0 -62 71 -62 86 0 5 -9 15 -20 22 -17 10 -20 10 -20 -2 0 -8 6 -19 13 -23
22 -14 70 -92 64 -106 -2 -7 -33 -29 -67 -50 -60 -36 -80 -43 -80 -32 0 13 31
161 37 175 3 8 5 23 4 33 -1 10 3 24 9 32 16 19 3 40 -15 25 -21 -17 -219
-114 -232 -113 -20 1 -23 -25 -2 -30 11 -3 19 0 19 6 0 7 47 35 105 64 103 51
105 52 105 28 0 -13 -4 -27 -10 -30 -5 -3 -10 -20 -10 -36 0 -17 -7 -62 -16
-101 l-16 -70 -55 53 c-39 39 -50 56 -41 62 7 4 37 22 66 38 30 17 52 33 49
35 -7 8 -104 -36 -118 -52 -6 -8 -18 -14 -25 -14 -14 0 -35 -17 -138 -110
-108 -99 -146 -195 -146 -375 0 -141 -15 -195 -79 -294 -69 -104 -67 -123 13
-165 74 -38 91 -62 78 -110 -8 -28 -7 -43 9 -73 10 -20 19 -45 19 -55 0 -9 15
-34 32 -54 31 -35 33 -42 30 -100 -2 -54 1 -66 23 -92 35 -42 73 -55 142 -48
91 10 134 7 159 -9 27 -17 34 -19 34 -6 0 5 -16 15 -35 22 -19 7 -35 15 -35
19 0 3 21 14 48 24 50 20 158 82 167 95 2 5 -24 -7 -60 -26 -73 -39 -214 -89
-278 -98 -47 -7 -91 6 -125 37 -19 18 -22 32 -22 89 0 62 -3 72 -30 102 -17
19 -33 50 -36 68 -4 19 -13 41 -21 51 -11 12 -13 29 -8 61 9 57 -4 81 -58 108
-48 24 -87 57 -87 74 0 7 18 37 41 68 22 32 52 83 67 115 25 54 27 66 27 202
0 136 2 148 27 203 57 122 86 139 160 94 52 -32 94 -92 120 -171 6 -17 14
-125 17 -241 6 -188 9 -214 29 -251 29 -57 72 -90 180 -140 175 -82 272 -215
272 -376 0 -26 3 -48 8 -48 4 1 45 15 92 33 67 25 86 37 88 54 8 55 -117 228
-216 299 -51 36 -171 117 -224 149 -67 41 -94 125 -123 382 -8 77 -22 164 -31
193 -30 102 -95 181 -162 199 -37 10 -37 31 0 61 l31 24 44 -49 c25 -28 49
-61 54 -73 5 -13 17 -26 27 -29 9 -2 37 -33 62 -68 37 -52 44 -71 42 -100 -3
-32 0 -37 27 -46 18 -6 31 -18 31 -27 0 -10 9 -42 19 -72 10 -30 14 -56 10
-58 -16 -6 -10 -20 11 -25 13 -3 20 -14 20 -29 0 -12 9 -42 20 -65 16 -37 17
-45 4 -57 -32 -32 -6 -76 44 -76 11 0 22 -6 25 -14 12 -30 119 -187 124 -182
3 3 -22 48 -56 99 -57 88 -71 117 -53 117 4 0 28 -7 53 -16 36 -13 47 -23 55
-48 6 -21 16 -32 32 -34 14 -2 22 -9 19 -17 -12 -29 -18 -110 -8 -95 5 8 13
36 16 62 4 26 10 48 15 48 11 0 83 -218 75 -230 -8 -13 -92 54 -100 81 -8 23
-40 25 -49 3 -8 -21 2 -37 20 -30 20 8 99 -62 100 -89 2 -38 12 -55 41 -66 22
-8 32 -6 55 11 22 16 37 19 66 15 70 -12 74 -15 68 -41 -4 -14 -2 -24 4 -24 5
0 10 7 10 15 0 9 6 18 14 21 8 3 16 19 20 35 8 39 28 27 24 -14 -2 -23 1 -32
15 -35 20 -4 35 27 18 37 -6 4 -16 30 -21 57 -4 27 -20 96 -35 153 -33 130
-30 136 69 126 50 -6 66 -11 66 -23 0 -9 -20 -56 -45 -105 -25 -49 -44 -97
-43 -106 2 -9 30 37 63 102 l59 117 35 -6 c20 -4 39 -9 43 -13 3 -3 -36 -67
-88 -141 -87 -125 -107 -159 -86 -146 5 3 48 64 96 135 49 72 97 133 107 136
19 6 26 35 12 48 -11 11 -2 231 9 245 8 9 7 17 -4 30 -14 15 -27 94 -33 187
-1 17 -16 61 -33 98 -17 37 -28 75 -25 83 3 10 -1 17 -13 20 -11 3 -32 23 -48
45 -17 21 -34 39 -39 39 -12 0 30 -57 57 -77 20 -16 21 -19 7 -35 -17 -19 -41
-24 -41 -8 0 5 -13 25 -30 43 -32 37 -41 87 -16 87 20 0 30 38 15 56 -8 9 -22
13 -38 9 -36 -7 -150 77 -158 117 -6 32 -30 44 -52 24 -14 -13 -35 -9 -168 26
-119 32 -152 45 -156 59 -6 23 -43 25 -54 4z m27 -5 c0 -5 -5 -10 -11 -10 -5
0 -7 5 -4 10 3 6 8 10 11 10 2 0 4 -4 4 -10z m175 -69 c134 -36 170 -57 117
-67 -18 -4 -32 -10 -32 -15 0 -12 -55 -39 -78 -39 -19 0 -92 71 -92 90 0 11
-39 34 -46 27 -3 -3 20 -31 51 -63 30 -32 55 -66 55 -77 0 -23 -82 -139 -91
-130 -10 11 -50 294 -42 306 3 5 13 7 22 4 9 -2 70 -19 136 -36z m-177 -9 c-1
-15 2 -37 6 -49 11 -33 35 -206 30 -214 -2 -4 2 -9 8 -12 7 -2 10 -7 7 -11 -4
-4 -22 8 -40 26 -19 18 -56 52 -83 75 l-48 42 22 38 c13 21 36 55 51 75 16 20
29 42 29 47 0 6 4 11 9 11 5 0 9 -12 9 -28z m372 -32 c0 -5 -2 -10 -4 -10 -3
0 -8 5 -11 10 -3 6 -1 10 4 10 6 0 11 -4 11 -10z m-12 -109 c2 -38 5 -86 7
-105 l5 -36 -72 60 c-64 54 -88 69 -88 55 0 -2 24 -23 54 -45 30 -23 62 -52
70 -65 15 -24 14 -27 -29 -95 -51 -79 -75 -88 -116 -44 -13 14 -42 40 -64 57
-30 22 -23 13 25 -36 39 -41 61 -70 55 -76 -17 -15 -115 -22 -120 -8 -3 7 -9
43 -14 82 -8 54 -7 73 3 85 7 8 11 21 9 28 -6 17 75 122 94 122 8 0 17 9 20
19 3 11 12 22 21 24 10 3 29 14 45 24 23 15 30 16 48 5 12 -8 24 -11 27 -7 4
3 0 10 -7 14 -7 5 -10 14 -6 20 15 26 31 -10 33 -78z m113 22 c38 -27 69 -53
69 -59 0 -21 -29 -24 -47 -5 -31 31 -84 63 -91 56 -4 -4 1 -12 12 -19 40 -25
66 -48 66 -61 0 -11 -74 -55 -93 -55 -4 0 -7 43 -7 95 0 61 4 95 11 95 6 0 42
-21 80 -47z m-291 -7 c0 -3 -4 -8 -10 -11 -5 -3 -10 -1 -10 4 0 6 5 11 10 11
6 0 10 -2 10 -4z m-330 -48 c0 -32 -34 -244 -40 -251 -8 -9 -120 140 -120 159
0 7 20 22 44 34 24 13 57 33 72 46 33 26 44 29 44 12z m730 2 c0 -5 -7 -10
-15 -10 -8 0 -15 5 -15 10 0 6 7 10 15 10 8 0 15 -4 15 -10z m-639 -46 c55
-46 79 -72 79 -85 0 -3 -34 -31 -76 -60 -42 -30 -82 -58 -90 -64 -7 -5 -16 -7
-19 -4 -5 5 21 213 31 247 6 20 17 15 75 -34z m617 -5 c-2 -6 -8 -10 -13 -10
-5 0 -11 4 -13 10 -2 6 4 11 13 11 9 0 15 -5 13 -11z m-21 -21 c19 -21 20 -29
11 -93 -14 -101 -17 -115 -28 -115 -9 0 -130 150 -130 162 0 8 99 65 116 67 6
0 20 -9 31 -21z m68 -92 l27 -39 -42 -41 -42 -41 7 75 c7 71 13 96 20 88 2 -2
16 -21 30 -42z m-172 -42 c32 -42 57 -82 57 -90 0 -16 -20 -17 -133 -8 -91 8
-94 14 -44 90 19 28 36 58 40 67 3 9 10 17 15 17 5 0 34 -34 65 -76z m-379 -6
c3 -35 9 -75 12 -91 6 -26 5 -27 -17 -18 -13 4 -61 12 -106 16 -59 5 -83 11
-83 20 0 8 23 31 51 52 27 21 62 48 77 60 46 38 58 31 66 -39z m643 21 c3 -12
16 -41 28 -65 14 -28 18 -45 11 -48 -8 -3 -8 -7 0 -13 7 -4 17 -49 24 -100 11
-83 11 -93 -4 -108 -9 -9 -23 -15 -31 -12 -7 3 -19 -1 -25 -9 -7 -8 -24 -14
-39 -14 -14 0 -33 -5 -41 -11 -11 -8 -2 -9 34 -4 l49 7 -8 -59 c-4 -32 -9 -60
-11 -62 -2 -2 -13 8 -25 23 -11 14 -26 32 -33 39 -22 21 -43 79 -56 152 -6 39
-14 80 -17 93 -3 13 0 22 7 22 17 0 150 -122 150 -137 0 -7 9 -13 21 -13 19 0
19 1 5 22 -9 12 -16 39 -16 59 0 20 -5 51 -11 69 -9 25 -9 34 1 40 9 6 7 11
-9 19 -11 7 -21 19 -21 28 0 9 -7 25 -17 35 -13 15 -14 23 -5 43 14 31 32 32
39 4z m-32 -94 c16 -47 45 -151 45 -160 0 -12 -27 -3 -41 13 -8 9 -34 33 -57
53 -47 41 -43 54 18 62 34 4 34 4 -7 5 -23 1 -44 6 -48 11 -7 13 56 84 66 74
4 -4 15 -30 24 -58z m-845 0 c0 -8 -4 -15 -9 -15 -13 0 -22 16 -14 24 11 11
23 6 23 -9z m430 -15 c0 -5 -4 -10 -10 -10 -5 0 -10 5 -10 10 0 6 5 10 10 10
6 0 10 -4 10 -10z m285 -20 c-5 -8 -11 -8 -17 -2 -6 6 -7 16 -3 22 5 8 11 8
17 2 6 -6 7 -16 3 -22z m-575 -1 c36 -5 68 -13 72 -17 7 -7 -134 -132 -149
-132 -12 0 -47 136 -38 149 8 14 32 14 115 0z m508 -5 c30 -6 28 -16 -15 -62
l-37 -39 -32 30 c-18 16 -46 36 -61 43 -20 10 -14 2 20 -27 26 -23 47 -50 47
-61 0 -10 -16 -40 -35 -65 -19 -25 -35 -49 -35 -53 0 -4 -12 -10 -27 -13 -20
-4 -39 3 -71 25 -58 40 -64 30 -7 -11 28 -20 45 -40 45 -52 0 -24 -58 -99 -77
-99 -7 0 -13 1 -13 3 0 16 -31 171 -35 175 -14 15 -14 -13 0 -77 16 -70 15
-108 -4 -96 -6 3 -14 -2 -19 -12 -9 -15 -14 -15 -63 -2 -77 20 -77 43 1 134
32 39 65 70 72 70 7 0 15 11 18 25 3 14 23 51 44 83 29 42 45 57 63 57 13 0
30 8 38 18 13 14 28 17 88 14 40 -1 82 -5 95 -8z m-258 -3 c0 -16 -70 -131
-80 -131 -8 0 -40 95 -40 118 0 10 26 15 98 20 12 1 22 -2 22 -7z m-125 -53
c4 -24 14 -55 21 -70 8 -15 14 -29 14 -32 0 -3 -30 -2 -67 1 -38 3 -84 1 -103
-5 -31 -9 -24 -10 53 -11 48 -1 87 -4 87 -7 0 -14 -124 -154 -134 -151 -6 2
-24 39 -40 82 l-30 79 65 56 c35 32 73 66 84 78 31 31 43 26 50 -20z m465 -63
c8 -44 14 -92 12 -106 -3 -24 -8 -27 -64 -33 -34 -3 -81 -6 -104 -6 -24 0 -44
-4 -44 -10 0 -5 21 -7 48 -5 26 3 70 7 99 9 29 3 55 2 57 -3 7 -11 -72 -126
-86 -126 -7 0 -18 -4 -24 -7 -13 -9 -108 98 -117 130 -4 18 5 39 40 85 24 34
49 64 55 66 5 2 34 -21 64 -50 30 -29 54 -49 54 -44 0 5 -23 33 -52 62 l-52
53 34 35 c50 51 62 44 80 -50z m225 -243 c0 -125 -6 -157 -20 -112 -4 11 -18
34 -32 51 -25 29 -25 33 -15 81 7 27 12 62 12 78 0 29 13 40 40 37 12 -2 15
-25 15 -135z m-480 99 c3 -5 1 -12 -5 -16 -5 -3 -10 1 -10 9 0 18 6 21 15 7z
m340 -65 c22 -30 40 -58 39 -63 0 -4 -4 -23 -9 -42 l-8 -33 -56 6 c-81 10 -99
16 -104 35 -5 20 72 150 88 150 6 0 28 -24 50 -53z m-266 -35 c28 -32 51 -61
51 -65 0 -3 -36 -6 -79 -6 -68 0 -84 3 -106 23 l-26 22 28 37 c15 20 37 39 48
41 11 2 23 5 27 6 3 0 29 -25 57 -58z m-417 4 c0 -5 -5 -11 -11 -13 -6 -2 -11
4 -11 13 0 9 5 15 11 13 6 -2 11 -8 11 -13z m226 -66 c-2 -6 -8 -10 -13 -10
-5 0 -11 4 -13 10 -2 6 4 11 13 11 9 0 15 -5 13 -11z m552 -36 c0 -7 -11 -13
-25 -13 -25 0 -31 13 -19 45 6 14 8 14 25 -1 11 -9 19 -23 19 -31z m-312 -6
c13 -13 8 -28 -46 -129 -79 -148 -85 -148 -134 -3 l-36 110 21 24 c21 22 27
23 101 18 50 -3 84 -11 94 -20z m73 -138 c16 -63 28 -119 29 -126 0 -6 -13
-26 -28 -43 -25 -27 -32 -30 -56 -20 -15 5 -38 10 -51 10 -18 0 -29 9 -41 35
l-17 36 59 114 c33 63 63 114 68 112 5 -2 22 -55 37 -118z m-201 -159 c0 -5
-4 -10 -10 -10 -5 0 -10 5 -10 10 0 6 5 10 10 10 6 0 10 -4 10 -10z"/>
<path d="M1230 2522 c0 -10 117 -38 126 -29 6 5 -40 21 -93 32 -19 4 -33 2
-33 -3z"/>
<path d="M1295 2300 c-3 -5 1 -10 9 -10 9 0 16 5 16 10 0 6 -4 10 -9 10 -6 0
-13 -4 -16 -10z"/>
<path d="M1220 2249 c-10 -7 17 -8 90 -3 58 4 107 8 109 10 10 9 -186 3 -199
-7z"/>
<path d="M1515 2350 c-3 -5 1 -10 9 -10 9 0 16 5 16 10 0 6 -4 10 -9 10 -6 0
-13 -4 -16 -10z"/>
<path d="M1014 2271 c4 -6 2 -11 -3 -11 -6 0 -11 -4 -11 -10 0 -5 9 -10 21
-10 23 0 23 30 0 38 -8 3 -11 0 -7 -7z"/>
<path d="M1080 2135 c-16 -19 -5 -47 17 -43 22 4 29 43 9 51 -8 3 -20 -1 -26
-8z"/>
<path d="M1737 1894 c-8 -8 1 -24 14 -24 5 0 9 7 9 15 0 15 -12 20 -23 9z"/>
<path d="M1356 1914 c-70 -14 -95 -24 -58 -24 25 0 164 29 171 35 8 8 -41 4
-113 -11z"/>
<path d="M1397 1514 c-12 -12 -8 -42 6 -47 21 -8 39 8 35 29 -3 19 -29 30 -41
18z"/>
<path d="M1661 2521 c-10 -7 -10 -10 -1 -16 6 -4 16 -3 22 3 13 13 -4 23 -21
13z"/>
<path d="M1873 2484 c-17 -8 -16 -39 2 -54 24 -20 57 -3 53 28 -3 27 -27 38
-55 26z m27 -25 c0 -5 -4 -9 -10 -9 -5 0 -10 7 -10 16 0 8 5 12 10 9 6 -3 10
-10 10 -16z"/>
<path d="M740 2410 c-11 -7 -12 -12 -3 -21 13 -13 33 -4 33 17 0 16 -9 18 -30
4z"/>
<path d="M1907 2294 c-14 -15 -6 -34 14 -34 14 0 19 5 17 17 -3 18 -20 27 -31
17z"/>
<path d="M1981 2066 c-21 -25 -4 -58 27 -54 23 2 27 8 27 33 0 23 -5 31 -21
33 -11 2 -26 -4 -33 -12z m29 -16 c0 -5 -2 -10 -4 -10 -3 0 -8 5 -11 10 -3 6
-1 10 4 10 6 0 11 -4 11 -10z"/>
<path d="M860 1960 c-12 -8 -12 -10 3 -16 21 -8 35 2 21 16 -5 5 -15 6 -24 0z"/>
<path d="M893 1784 c-15 -40 46 -73 66 -35 6 11 8 27 5 35 -8 22 -63 21 -71 0z
m37 -4 c0 -5 -4 -10 -10 -10 -5 0 -10 5 -10 10 0 6 5 10 10 10 6 0 10 -4 10
-10z"/>
<path d="M2016 1751 c-15 -17 -15 -20 2 -41 16 -19 22 -21 40 -11 26 14 28 33
6 55 -20 21 -27 20 -48 -3z m29 -11 c3 -5 -1 -10 -10 -10 -9 0 -13 5 -10 10 3
6 8 10 10 10 2 0 7 -4 10 -10z"/>
<path d="M147 1583 c-55 -120 -71 -186 -71 -293 0 -78 4 -104 23 -147 13 -29
29 -57 35 -62 7 -6 -1 17 -18 51 -56 112 -39 275 46 455 16 35 28 66 26 69 -3
2 -21 -31 -41 -73z"/>
<path d="M1946 1411 c-309 -355 -663 -585 -1037 -672 -74 -18 -127 -22 -249
-23 -85 -1 -173 2 -195 7 l-40 7 32 -14 c26 -12 32 -21 36 -53 l4 -38 1 40 2
40 140 -3 c111 -2 161 1 238 17 389 81 750 308 1065 669 49 57 87 105 85 107
-2 3 -39 -35 -82 -84z"/>
<path d="M908 943 c7 -3 16 -2 19 1 4 3 -2 6 -13 5 -11 0 -14 -3 -6 -6z"/>
<path d="M858 933 c7 -3 16 -2 19 1 4 3 -2 6 -13 5 -11 0 -14 -3 -6 -6z"/>
<path d="M155 870 c10 -11 20 -20 23 -20 3 0 -3 9 -13 20 -10 11 -20 20 -23
20 -3 0 3 -9 13 -20z"/>
<path d="M240 805 c0 -8 121 -66 129 -63 4 2 -23 17 -61 35 -37 18 -68 30 -68
28z"/>
<path d="M398 733 c7 -3 16 -2 19 1 4 3 -2 6 -13 5 -11 0 -14 -3 -6 -6z"/>
<path d="M2083 665 c0 -33 2 -45 4 -27 2 18 2 45 0 60 -2 15 -4 0 -4 -33z"/>
<path d="M1053 670 c0 -25 2 -35 4 -22 2 12 2 32 0 45 -2 12 -4 2 -4 -23z"/>
<path d="M1503 645 c0 -33 2 -45 4 -27 2 18 2 45 0 60 -2 15 -4 0 -4 -33z"/>
<path d="M1710 546 l0 -155 -47 -4 c-48 -4 -48 -4 5 -3 l53 1 5 158 c4 110 3
157 -5 157 -8 0 -11 -49 -11 -154z"/>
<path d="M207 633 c-4 -3 -7 -11 -7 -17 0 -7 3 -7 8 0 4 7 18 14 32 17 l25 4
-26 2 c-14 0 -29 -2 -32 -6z"/>
<path d="M633 540 c0 -47 2 -66 4 -42 2 23 2 61 0 85 -2 23 -4 4 -4 -43z"/>
<path d="M791 604 c0 -11 3 -14 6 -6 3 7 2 16 -1 19 -3 4 -6 -2 -5 -13z"/>
<path d="M1260 503 c-56 -155 -78 -189 -132 -204 -26 -8 -36 -14 -26 -16 35
-8 88 28 112 76 29 56 99 251 93 257 -2 2 -23 -49 -47 -113z"/>
<path d="M1823 545 c0 -44 2 -61 4 -37 2 23 2 59 0 80 -2 20 -4 1 -4 -43z"/>
<path d="M1982 508 l-2 -117 -37 -4 c-21 -2 -1 -4 43 -5 60 -2 85 2 93 12 8
10 9 16 1 21 -5 3 -10 -1 -10 -9 0 -12 -10 -16 -40 -16 l-39 0 -4 118 -3 117
-2 -117z"/>
<path d="M298 603 c12 -2 32 -2 45 0 12 2 2 4 -23 4 -25 0 -35 -2 -22 -4z"/>
<path d="M1141 580 c0 -8 4 -24 9 -35 5 -13 9 -14 9 -5 0 8 -4 24 -9 35 -5 13
-9 14 -9 5z"/>
<path d="M492 513 l2 -58 3 52 c3 44 7 52 26 56 18 4 17 5 -5 6 -28 1 -28 0
-26 -56z"/>
<path d="M892 558 c-7 -7 -11 -30 -10 -52 l1 -41 6 45 c5 36 10 45 31 51 21 6
22 7 5 8 -12 1 -26 -4 -33 -11z"/>
<path d="M2090 551 c-5 -11 -9 -32 -9 -48 2 -25 2 -25 8 7 4 23 14 39 31 47
24 12 24 13 3 13 -12 0 -27 -9 -33 -19z"/>
<path d="M1051 544 c0 -11 3 -14 6 -6 3 7 2 16 -1 19 -3 4 -6 -2 -5 -13z"/>
<path d="M2249 497 c-6 -61 -36 -107 -70 -107 -10 0 -21 -5 -25 -11 -9 -16 34
-2 66 20 28 20 43 66 38 119 -3 30 -4 27 -9 -21z"/>
<path d="M208 503 c7 -3 16 -2 19 1 4 3 -2 6 -13 5 -11 0 -14 -3 -6 -6z"/>
<path d="M376 471 c-7 -46 -35 -70 -94 -82 l-37 -7 37 -1 c48 -1 95 37 104 85
3 19 4 37 2 40 -3 2 -8 -13 -12 -35z"/>
<path d="M1500 451 l0 -60 -47 -4 -48 -3 53 -2 52 -2 0 59 0 60 53 4 52 3 -57
2 -58 2 0 -59z"/>
<path d="M1050 446 l0 -55 -37 -4 -38 -4 43 -1 42 -2 0 60 c0 33 -2 60 -5 60
-3 0 -5 -24 -5 -54z"/>
<path d="M540 410 c0 -13 -7 -20 -19 -20 -11 0 -22 -4 -25 -8 -3 -5 8 -6 25
-4 23 3 29 9 29 28 0 13 -2 24 -5 24 -3 0 -5 -9 -5 -20z"/>
<path d="M685 406 c-11 -7 -29 -16 -40 -19 -16 -4 -15 -5 6 -6 14 0 34 8 44
19 21 23 17 26 -10 6z"/>
<path d="M943 403 c-12 -8 -39 -15 -60 -15 -31 0 -34 -2 -16 -9 24 -9 88 6 99
22 10 17 0 18 -23 2z"/>
<path d="M1870 405 c-14 -8 -34 -17 -45 -21 -12 -4 -15 -8 -8 -11 15 -5 83 26
83 38 0 10 2 11 -30 -6z"/>
<path d="M790 402 c0 -7 -17 -13 -37 -14 l-38 -1 34 -4 c33 -4 61 10 48 24 -4
3 -7 1 -7 -5z"/>
<path d="M1768 388 c5 -5 16 -8 23 -6 8 3 3 7 -10 11 -17 4 -21 3 -13 -5z"/>
<path d="M183 383 c9 -2 25 -2 35 0 9 3 1 5 -18 5 -19 0 -27 -2 -17 -5z"/>
<path d="M448 383 c7 -3 16 -2 19 1 4 3 -2 6 -13 5 -11 0 -14 -3 -6 -6z"/>
<path d="M588 383 c7 -3 16 -2 19 1 4 3 -2 6 -13 5 -11 0 -14 -3 -6 -6z"/>
<path d="M2118 383 c7 -3 16 -2 19 1 4 3 -2 6 -13 5 -11 0 -14 -3 -6 -6z"/>
<path d="M1058 293 c7 -3 16 -2 19 1 4 3 -2 6 -13 5 -11 0 -14 -3 -6 -6z"/>
<path d="M982 205 c-11 -12 -10 -15 3 -15 8 0 15 7 15 15 0 18 -2 18 -18 0z"/>
<path d="M1255 209 c-4 -6 -5 -12 -2 -15 2 -3 7 2 10 11 7 17 1 20 -8 4z"/>
<path d="M1612 204 c-7 -8 -8 -14 -3 -14 10 0 25 19 20 25 -2 1 -10 -3 -17
-11z"/>
<path d="M96 184 c-6 -15 -4 -15 11 -3 10 7 20 15 22 16 2 2 -3 3 -11 3 -9 0
-19 -7 -22 -16z"/>
<path d="M162 180 c-7 -11 -12 -25 -12 -32 1 -7 8 0 16 15 18 33 14 46 -4 17z"/>
<path d="M1491 149 c-6 -18 -9 -34 -7 -36 2 -2 9 10 15 28 6 18 9 34 7 36 -2
2 -9 -10 -15 -28z"/>
<path d="M1242 150 c-12 -12 -22 -25 -22 -30 0 -5 12 2 26 17 30 30 27 42 -4
13z"/>
<path d="M579 134 c-5 -15 -8 -29 -5 -31 2 -2 8 10 14 26 13 38 5 41 -9 5z"/>
<path d="M971 153 c-1 -6 -4 -20 -7 -30 -5 -17 -5 -17 6 0 6 10 9 23 6 30 -3
9 -5 9 -5 0z"/>
<path d="M1596 145 c-9 -26 -7 -32 5 -12 6 10 9 21 6 23 -2 3 -7 -2 -11 -11z"/>
<path d="M1751 129 c-6 -18 -9 -34 -7 -36 2 -2 9 10 15 28 6 18 9 34 7 36 -2
2 -9 -10 -15 -28z"/>
<path d="M2051 148 c0 -9 -4 -25 -7 -35 -5 -17 -5 -17 6 0 6 10 9 25 7 35 -4
15 -5 15 -6 0z"/>
<path d="M260 140 c0 -5 5 -10 10 -10 6 0 10 5 10 10 0 6 -4 10 -10 10 -5 0
-10 -4 -10 -10z"/>
<path d="M311 138 c-1 -20 -36 -42 -51 -33 -6 3 -10 1 -10 -4 0 -6 11 -11 25
-11 25 0 50 32 41 53 -2 7 -5 4 -5 -5z"/>
<path d="M530 139 c0 -5 5 -7 10 -4 6 3 10 8 10 11 0 2 -4 4 -10 4 -5 0 -10
-5 -10 -11z"/>
<path d="M685 139 c-4 -6 -5 -12 -2 -15 2 -3 7 2 10 11 7 17 1 20 -8 4z"/>
<path d="M736 135 c-9 -26 -7 -32 5 -12 6 10 9 21 6 23 -2 3 -7 -2 -11 -11z"/>
<path d="M1070 129 c-7 -11 -10 -23 -7 -25 2 -2 9 7 15 21 14 30 7 33 -8 4z"/>
<path d="M1691 120 c-5 -16 -8 -30 -6 -30 2 0 10 14 19 30 8 17 11 30 6 30 -4
0 -13 -13 -19 -30z"/>
<path d="M1860 139 c0 -5 5 -7 10 -4 6 3 10 8 10 11 0 2 -4 4 -10 4 -5 0 -10
-5 -10 -11z"/>
<path d="M1906 135 c-9 -26 -7 -32 5 -12 6 10 9 21 6 23 -2 3 -7 -2 -11 -11z"/>
<path d="M2000 139 c0 -5 5 -7 10 -4 6 3 10 8 10 11 0 2 -4 4 -10 4 -5 0 -10
-5 -10 -11z"/>
<path d="M2153 133 c-3 -10 -8 -22 -11 -27 -3 -5 0 -6 5 -3 11 7 25 47 17 47
-3 0 -7 -8 -11 -17z"/>
<path d="M2191 127 c-13 -21 -12 -21 5 -5 10 10 16 20 13 22 -3 3 -11 -5 -18
-17z"/>
<path d="M2350 142 c0 -6 -10 -20 -22 -32 -12 -11 -17 -20 -10 -20 14 0 47 48
38 57 -3 3 -6 1 -6 -5z"/>
<path d="M105 130 c3 -5 8 -10 11 -10 2 0 4 5 4 10 0 6 -5 10 -11 10 -5 0 -7
-4 -4 -10z"/>
<path d="M1376 114 c-18 -26 -18 -26 3 -15 11 7 21 18 21 26 0 20 -2 19 -24
-11z"/>
<path d="M615 98 c-6 -13 -21 -28 -35 -35 -18 -9 -20 -13 -7 -13 21 0 57 34
57 55 0 21 -4 19 -15 -7z"/>
<path d="M770 95 c-7 -13 -22 -27 -32 -31 -11 -3 -17 -8 -15 -11 9 -8 46 16
58 38 6 11 9 23 6 25 -2 2 -10 -7 -17 -21z"/>
<path d="M1782 95 c-7 -14 -23 -30 -36 -36 -25 -12 -54 -59 -36 -59 6 0 10 7
10 15 0 9 16 25 35 36 19 11 37 29 40 40 10 30 0 33 -13 4z"/>
<path d="M1982 91 c-6 -17 -9 -31 -6 -31 7 0 25 52 20 57 -2 2 -8 -10 -14 -26z"/>
<path d="M178 89 c-15 -15 -15 -19 -3 -19 8 0 19 9 25 20 13 25 1 25 -22 -1z"/>
<path d="M323 84 c-12 -14 -34 -24 -50 -25 -18 -1 -22 -3 -10 -6 24 -6 74 15
82 34 9 25 2 24 -22 -3z"/>
<path d="M995 84 c-11 -17 -12 -25 -4 -22 6 2 16 14 20 26 11 29 5 28 -16 -4z"/>
<path d="M1147 84 c-10 -13 -13 -24 -8 -24 10 0 36 39 29 45 -2 2 -11 -8 -21
-21z"/>
<path d="M1274 95 c-4 -9 -21 -23 -38 -31 -17 -7 -24 -13 -14 -14 21 0 76 46
66 56 -4 4 -11 -1 -14 -11z"/>
<path d="M1412 90 c-6 -11 -26 -24 -44 -29 -18 -5 -25 -10 -16 -10 28 -2 65
16 72 35 9 24 2 27 -12 4z"/>
<path d="M1622 90 c-7 -12 -23 -25 -35 -30 -15 -6 -17 -9 -6 -9 22 -1 63 32
58 47 -3 8 -9 4 -17 -8z"/>
<path d="M2077 84 c-10 -13 -13 -24 -8 -24 10 0 36 39 29 45 -2 2 -11 -8 -21
-21z"/>
<path d="M2213 85 c-12 -14 -18 -25 -13 -25 11 0 40 29 40 41 0 13 -2 12 -27
-16z"/>
<path d="M2365 90 c-10 -11 -32 -24 -49 -29 -17 -5 -23 -10 -14 -10 29 -2 66
17 78 39 14 25 8 26 -15 0z"/>
<path d="M88 93 c7 -3 16 -2 19 1 4 3 -2 6 -13 5 -11 0 -14 -3 -6 -6z"/>
<path d="M1920 85 c-7 -8 -27 -20 -44 -25 l-31 -10 35 5 c34 5 69 29 58 40 -3
3 -11 -1 -18 -10z"/>
<path d="M1042 70 c-7 -11 -8 -20 -3 -20 9 0 24 30 18 36 -1 2 -8 -6 -15 -16z"/>
<path d="M1509 73 c-13 -16 -12 -17 4 -4 16 13 21 21 13 21 -2 0 -10 -8 -17
-17z"/>
<path d="M40 60 c-9 -6 -10 -10 -3 -10 6 0 15 5 18 10 8 12 4 12 -15 0z"/>
<path d="M100 60 c-20 -6 -21 -8 -5 -8 11 0 29 3 40 8 25 11 -1 11 -35 0z"/>
<path d="M520 60 c-8 -5 -10 -10 -5 -10 6 0 17 5 25 10 8 5 11 10 5 10 -5 0
-17 -5 -25 -10z"/>
<path d="M2158 53 c7 -3 16 -2 19 1 4 3 -2 6 -13 5 -11 0 -14 -3 -6 -6z"/>
</g>
</svg>
